<?xml version="1.0" encoding="iso-8859-1"?>
<!-- Generator: Adobe Illustrator 17.1.0, SVG Export Plug-In . SVG Version: 6.00 Build 0)  -->
<!DOCTYPE svg PUBLIC "-//W3C//DTD SVG 1.1//EN" "http://www.w3.org/Graphics/SVG/1.1/DTD/svg11.dtd">
<svg version="1.1" id="Capa_1" xmlns="http://www.w3.org/2000/svg" xmlns:xlink="http://www.w3.org/1999/xlink" x="0px" y="0px"
	 viewBox="0 0 212.688 212.688" style="enable-background:new 0 0 212.688 212.688;" xml:space="preserve">
<path d="M117.231,212.688H95.456c-1.104,0-2-0.896-2-2v-23.615c-5.624-0.842-11.139-2.269-16.441-4.253l-11.741,20.308
	c-0.266,0.459-0.703,0.794-1.215,0.932c-0.513,0.135-1.059,0.064-1.518-0.201l-18.852-10.9c-0.957-0.553-1.283-1.776-0.73-2.732
	l11.65-20.148c-4.362-3.497-8.365-7.441-11.933-11.76l-20.027,11.657c-0.459,0.267-1.005,0.342-1.517,0.205
	c-0.513-0.136-0.951-0.469-1.218-0.928l-10.955-18.82c-0.556-0.954-0.232-2.179,0.722-2.734l19.903-11.585
	c-2.122-5.421-3.656-11.083-4.575-16.88H2c-1.104,0-2-0.896-2-2V95.455c0-1.104,0.896-2,2-2h23.004
	c0.906-5.716,2.412-11.305,4.489-16.657L9.561,65.273c-0.459-0.266-0.794-0.702-0.931-1.215C8.492,63.546,8.564,63,8.83,62.541
	l10.9-18.852c0.552-0.956,1.775-1.284,2.732-0.73l20.06,11.598c3.727-4.538,7.91-8.653,12.468-12.265L43.467,22.08
	c-0.263-0.461-0.332-1.007-0.192-1.519c0.14-0.512,0.478-0.946,0.938-1.209L63.131,8.567c0.962-0.549,2.182-0.213,2.728,0.747
	l11.621,20.381c5.162-1.895,10.521-3.264,15.976-4.08V2c0-1.104,0.896-2,2-2h21.776c1.104,0,2,0.896,2,2v23.828
	c5.538,0.93,10.969,2.432,16.188,4.478l11.994-20.745c0.553-0.956,1.777-1.285,2.732-0.73l18.852,10.899
	c0.957,0.553,1.283,1.776,0.73,2.732L157.62,43.406c4.177,3.455,8.009,7.322,11.423,11.529l20.996-12.222
	c0.957-0.558,2.179-0.232,2.735,0.723l10.955,18.82c0.267,0.458,0.341,1.004,0.205,1.517c-0.135,0.513-0.469,0.951-0.927,1.218
	l-21.074,12.267c1.992,5.226,3.441,10.659,4.32,16.197h24.435c1.104,0,2,0.896,2,2v21.776c0,1.104-0.896,2-2,2h-24.44
	c-0.867,5.459-2.288,10.817-4.236,15.974l21.115,12.209c0.957,0.553,1.283,1.776,0.73,2.732l-10.899,18.852
	c-0.553,0.955-1.777,1.283-2.732,0.73l-21.028-12.158c-3.551,4.399-7.562,8.433-11.957,12.022l11.98,21.014
	c0.547,0.959,0.213,2.181-0.747,2.728l-18.917,10.786c-0.461,0.263-1.007,0.332-1.519,0.191c-0.512-0.14-0.947-0.478-1.209-0.938
	l-11.869-20.816c-5.083,1.957-10.357,3.399-15.729,4.302v23.829C119.231,211.792,118.336,212.688,117.231,212.688z M97.456,208.688
	h17.776v-35.62H99.284l-1.829,1.828V208.688z M137.947,179.72l11.366,19.935l15.442-8.805l-17.643-30.943l-13.854,7.898l-0.63,2.303
	l5.076,8.904C137.83,179.232,137.912,179.473,137.947,179.72z M47.422,190.495l15.389,8.898l11.217-19.4
	c0.036-0.247,0.119-0.488,0.247-0.71l6.244-10.798l-13.684-7.911l-2.498,0.667L47.422,190.495z M79.046,179.306
	c4.66,1.697,9.489,2.944,14.41,3.72v-9.24c0-0.53,0.21-1.039,0.585-1.414l3-3c0.375-0.375,0.884-0.586,1.415-0.586h18.776
	c1.104,0,2,0.896,2,2V182.8c4.678-0.828,9.276-2.088,13.723-3.761l-4.264-7.479c-0.197-0.346-0.286-0.74-0.258-1.132
	c-0.016-0.223,0.006-0.449,0.066-0.669l1.121-4.092c0.14-0.512,0.478-0.946,0.938-1.209l16.311-9.3
	c0.461-0.264,1.007-0.333,1.519-0.191c0.511,0.14,0.946,0.478,1.209,0.938l5.742,10.07c3.775-3.149,7.244-6.646,10.351-10.433
	l-9.765-5.646c-0.459-0.266-0.794-0.702-0.931-1.215c-0.058-0.216-0.078-0.438-0.063-0.656c-0.028-0.386,0.056-0.784,0.264-1.144
	l10.9-18.852c0.552-0.956,1.774-1.285,2.732-0.73l9.758,5.642c1.619-4.442,2.829-9.036,3.61-13.711h-11.128c-1.104,0-2-0.896-2-2
	v-3.343h-13.929c-1.104,0-2-0.896-2-2v-3.827h-2.654v3.827c0,1.104-0.896,2-2,2h-9.88c-1.104,0-2-0.896-2-2v-3.827h-3.474v3.827
	c0,1.104-0.896,2-2,2h-7.603l-0.248,1.062h0.807c0.199,0,0.397,0.029,0.588,0.088l5.242,1.612c0.746,0.229,1.291,0.872,1.394,1.646
	l0.403,3c0.411,3.052,0.709,9.405,0.722,9.675c0.043,0.925-0.554,1.758-1.444,2.015l-16.433,4.739
	c-0.658,0.19-1.367,0.029-1.879-0.424l-2.054-1.817h-9.775l-2.054,1.817c-0.514,0.452-1.222,0.613-1.879,0.424l-16.433-4.739
	c-0.89-0.257-1.487-1.09-1.444-2.015c0.013-0.27,0.311-6.623,0.722-9.675l0.403-3c0.104-0.773,0.648-1.416,1.394-1.646l5.242-1.612
	c0.19-0.059,0.389-0.088,0.588-0.088h0.807l-0.74-3.172c-0.035-0.148-0.052-0.301-0.052-0.454v-10.525
	c0-0.153,0.018-0.306,0.052-0.454l0.74-3.171H87.39c-0.199,0-0.397-0.03-0.588-0.089l-5.242-1.613
	c-0.746-0.229-1.29-0.871-1.394-1.645l-0.403-3c-0.411-3.052-0.709-9.405-0.722-9.675c-0.043-0.925,0.555-1.758,1.444-2.015
	l16.433-4.738c0.658-0.189,1.367-0.03,1.879,0.424l2.054,1.816h9.776l2.054-1.816c0.512-0.454,1.22-0.614,1.879-0.424l16.433,4.738
	c0.89,0.257,1.487,1.09,1.444,2.015c-0.013,0.27-0.311,6.623-0.722,9.675l-0.403,3c-0.104,0.773-0.648,1.415-1.394,1.645
	l-5.242,1.613c-0.191,0.059-0.389,0.089-0.588,0.089h-0.807l0.379,1.625h7.471c1.104,0,2,0.896,2,2v3.263h3.474v-3.263
	c0-1.104,0.896-2,2-2h9.88c1.104,0,2,0.896,2,2v3.263h2.654v-3.263c0-1.104,0.896-2,2-2h13.929v-0.625
	c0-0.53,0.211-1.039,0.586-1.414l3-3c0.375-0.375,0.884-0.586,1.415-0.586h8.086c-0.809-4.734-2.058-9.384-3.726-13.875
	l-9.662,5.624c-0.458,0.268-1.005,0.342-1.517,0.205c-0.513-0.136-0.951-0.469-1.218-0.928l-10.955-18.82
	c-0.21-0.361-0.294-0.761-0.267-1.148c-0.015-0.217,0.005-0.437,0.062-0.65c0.135-0.513,0.469-0.951,0.928-1.218l9.587-5.58
	c-2.963-3.569-6.246-6.874-9.797-9.862l-5.69,9.842c-0.266,0.459-0.703,0.794-1.215,0.932c-0.514,0.135-1.06,0.064-1.518-0.201
	l-16.255-9.398c-0.459-0.266-0.794-0.702-0.931-1.215l-1.096-4.099c-0.058-0.217-0.079-0.438-0.063-0.657
	c-0.028-0.396,0.063-0.794,0.264-1.143l4.176-7.222c-4.538-1.729-9.239-3.025-14.028-3.872V41.62c0,1.104-0.896,2-2,2H98.456
	c-0.531,0-1.04-0.211-1.415-0.586l-3-3c-0.375-0.375-0.585-0.884-0.585-1.414v-8.958c-4.714,0.743-9.349,1.92-13.833,3.512
	l5.859,10.278c0.197,0.345,0.285,0.737,0.258,1.128c0.053,0.743-0.313,1.487-1.004,1.881l-16.311,9.3
	c-0.461,0.263-1.007,0.333-1.519,0.191l-4.092-1.12c-0.511-0.14-0.946-0.478-1.209-0.938l-4.609-8.084
	c-3.916,3.153-7.537,6.702-10.802,10.588l10.569,6.11c0.685,0.396,1.047,1.136,0.994,1.876c0.027,0.395-0.063,0.791-0.264,1.139
	L46.593,84.374c-0.553,0.955-1.778,1.284-2.732,0.73L33,78.825c-1.751,4.626-3.057,9.436-3.896,14.349h9.516
	c0.53,0,1.039,0.211,1.414,0.586l3,3c0.375,0.375,0.585,0.884,0.585,1.414v19.058c0,1.104-0.896,2-2,2H29.062
	c0.835,5.006,2.154,9.902,3.936,14.611l10.926-6.359c0.955-0.557,2.179-0.232,2.734,0.723l10.955,18.819
	c0.203,0.349,0.294,0.747,0.267,1.144c0.053,0.737-0.307,1.476-0.989,1.873l-10.708,6.233c3.125,3.718,6.59,7.137,10.342,10.205
	l4.765-8.24c0.266-0.459,0.703-0.794,1.215-0.932l4.099-1.096c0.511-0.136,1.058-0.065,1.517,0.201l16.255,9.398
	c0.459,0.266,0.794,0.702,0.931,1.215c0.058,0.216,0.078,0.438,0.063,0.657c0.028,0.396-0.063,0.794-0.264,1.142L79.046,179.306z
	 M13.421,150.147l8.943,15.363l18.924-11.016c0.171-0.283,0.412-0.522,0.704-0.692l11.034-6.423l-8.819-15.152L13.421,150.147z
	 M170.557,153.737l19.938,11.527l8.897-15.389l-30.837-17.83l-8.775,15.179l10.07,5.822
	C170.144,153.216,170.385,153.454,170.557,153.737z M83.118,129.582l13.852,3.994l1.798-1.591c0.366-0.323,0.837-0.502,1.325-0.502
	h3.646v-1.696l-1.983-0.051c-0.338-0.009-0.669-0.103-0.961-0.274l-2.897-1.701c-0.03-0.017-0.061-0.034-0.09-0.053l-1.65-0.969
	c-0.21-0.123-0.396-0.284-0.549-0.476l-5.852-7.313h-2.065l-3.731,1.147l-0.233,1.731C83.459,123.82,83.233,127.487,83.118,129.582z
	 M107.739,131.483h3.646c0.488,0,0.959,0.179,1.325,0.502l1.798,1.591l13.852-3.994c-0.115-2.095-0.341-5.762-0.608-7.753
	l-0.233-1.731l-3.731-1.147h-2.065l-5.852,7.313c-0.152,0.191-0.338,0.353-0.549,0.476l-1.65,0.969
	c-0.03,0.019-0.06,0.036-0.091,0.053l-2.897,1.701c-0.292,0.172-0.623,0.266-0.961,0.274l-1.983,0.051V131.483z M102.375,125.751
	l3.364,0.086l3.364-0.086l1.161-0.681l-2.782-9.745c-0.051-0.179-0.077-0.363-0.077-0.549V97.348c0-0.186,0.026-0.37,0.077-0.549
	l2.782-9.745l-1.161-0.681l-3.364-0.086l-3.365,0.086l-1.16,0.681l2.782,9.745c0.051,0.179,0.077,0.363,0.077,0.549v17.429
	c0,0.186-0.026,0.37-0.077,0.549l-2.782,9.745L102.375,125.751z M111.405,114.496l2.303,8.067l5.208-6.509l1.157-4.961v-3.032
	h-8.667V114.496z M92.562,116.055l5.208,6.509l2.303-8.067v-6.435h-8.667v3.032L92.562,116.055z M185.584,115.231h23.104V97.455
	h-33.792l-1.829,1.828v15.666h11.493C184.924,114.949,185.277,115.049,185.584,115.231z M4,115.231h21.673
	c0.307-0.183,0.66-0.282,1.024-0.282H39.62V99.283l-1.829-1.828H4V115.231z M157.138,109.889h11.929v-7.09h-11.929V109.889z
	 M140.604,109.889h5.88v-7.09h-5.88V109.889z M124.304,109.889h4.826v-7.09h-4.826V109.889z M111.405,104.062h8.667v-3.032
	l-1.157-4.96l-5.208-6.51l-2.303,8.068V104.062z M91.405,104.062h8.667v-6.434L97.77,89.56l-5.208,6.51l-1.157,4.96V104.062z
	 M121.722,93.174h2.065l3.731-1.148l0.233-1.731c0.268-1.991,0.493-5.658,0.608-7.752l-13.852-3.994l-1.799,1.59
	c-0.365,0.323-0.836,0.502-1.325,0.502h-3.646v1.697l1.983,0.051c0.338,0.009,0.669,0.103,0.961,0.274l2.92,1.714
	c0.015,0.008,0.03,0.017,0.045,0.026l1.672,0.981c0.211,0.123,0.397,0.284,0.55,0.476L121.722,93.174z M87.691,93.174h2.065
	l5.852-7.314c0.152-0.191,0.338-0.353,0.549-0.476l1.673-0.982c0.014-0.009,0.028-0.017,0.043-0.025l2.921-1.714
	c0.292-0.172,0.623-0.266,0.961-0.274l1.983-0.051V80.64h-3.646c-0.488,0-0.959-0.179-1.325-0.502l-1.799-1.59l-13.852,3.994
	c0.115,2.094,0.341,5.761,0.608,7.752l0.233,1.731L87.691,93.174z M32.139,73.707c0.331,0.008,0.658,0.099,0.95,0.268l11.042,6.385
	l8.775-15.178L22.192,47.423l-8.898,15.389L32.139,73.707z M159.661,65.025l8.82,15.152l9.863-5.741
	c0.292-0.17,0.619-0.262,0.949-0.271l19.972-11.626l-8.942-15.363L159.661,65.025z M133.629,44.765l13.806,7.982l5.753-9.951
	c0.128-0.222,0.295-0.413,0.492-0.568l11.584-20.036l-15.389-8.897l-16.862,29.165L133.629,44.765z M64.669,50.911l2.494,0.683
	l13.733-7.829L63.375,13.032l-15.442,8.805l11.02,19.328c0.194,0.155,0.359,0.348,0.485,0.569L64.669,50.911z M99.284,39.338h15.947
	V4H97.456v33.51L99.284,39.338z"/>
<g>
</g>
<g>
</g>
<g>
</g>
<g>
</g>
<g>
</g>
<g>
</g>
<g>
</g>
<g>
</g>
<g>
</g>
<g>
</g>
<g>
</g>
<g>
</g>
<g>
</g>
<g>
</g>
<g>
</g>
</svg>
